<svg width="97" height="97" viewBox="0 0 97 97" fill="none" xmlns="http://www.w3.org/2000/svg">
<g clip-path="url(#clip0_88_15611)">
<path d="M11.5844 27.356L17.7054 27.3225L20.6233 40.0866L27.6893 27.268L33.8731 27.2336L33.8474 51.14L27.6282 51.1752L28.0008 37.4112L27.937 37.4129L20.0862 51.2163L17.6117 51.2289L14.2384 37.487H14.1776L10.0645 51.2725L3.8837 51.3044L11.5844 27.356Z" fill="white"/>
<path d="M55.7599 27.1131L61.0288 27.0842L57.3835 51.0114L51.1687 51.0457L53.2816 37.2727L41.2459 51.1002L35.9827 51.128L39.6269 27.202L45.8382 27.1676L43.8526 40.3697L55.7599 27.1131Z" fill="white"/>
<path d="M67.1916 50.958L60.9759 50.9915L64.619 27.0646L79.9341 26.981L79.1373 32.2483L70.0394 32.2979L67.1916 50.958Z" fill="white"/>
<path d="M30.7748 56.6616L34.9013 56.6382L28.8903 62.7367L33.4104 69.4549L29.0963 69.4791L25.6519 63.9415L25.6165 63.9423L24.7635 69.5028L21.436 69.5203L23.3859 56.702L26.7145 56.6834L25.91 61.9714H25.9468L30.7748 56.6616Z" fill="white"/>
<path d="M35.6074 56.6357L40.7006 56.6071C43.4527 56.5921 45.1767 57.8552 44.7153 60.7952C44.2575 63.8248 42.4259 65.1561 39.5235 65.173L37.6371 65.1828L36.9853 69.4366L33.6556 69.454L35.6074 56.6357ZM38.0495 62.4971L38.6111 62.4935C39.8187 62.487 41.0066 62.4802 41.2339 60.9192C41.4827 59.3023 40.3787 59.2938 39.0842 59.3015L38.5231 59.3048L38.0495 62.4971Z" fill="white"/>
<path d="M49.4815 59.3804L49.1528 61.5205L52.9027 61.4995L52.4778 64.3228L48.7282 64.3422L48.3794 66.5496L52.3364 66.5286L51.9137 69.3536L44.6284 69.3939L46.5813 56.5753L53.8653 56.5342L53.4358 59.3594L49.4815 59.3804Z" fill="white"/>
<path d="M54.9668 72.3686L51.9775 72.3844L52.8427 66.6949L53.1643 66.7116C54.6288 66.7887 56.0405 64.3352 56.4002 61.9694L57.2183 56.5163L66.8138 56.4634L65.2746 66.6279L66.8907 66.6195L66.0191 72.3081L63.0263 72.3242L63.489 69.2894L55.4213 69.3338L54.9668 72.3686ZM63.0934 59.1166L60.1556 59.1333L59.792 61.4437C59.3854 64.0275 58.5286 65.8657 57.4445 66.6873L61.9482 66.663L63.0934 59.1166Z" fill="white"/>
<path d="M78.2036 56.4019L81.0209 56.3853L79.0702 69.2055L75.7384 69.2238L76.8732 61.8433L70.4275 69.2524L67.6069 69.2673L69.5597 56.449L72.8845 56.4313L71.8222 63.5016L78.2036 56.4019Z" fill="white"/>
<path d="M85.8718 69.1678L82.5438 69.1863L84.0661 59.1905L81.3185 59.2055L81.742 56.3803L90.5734 56.3318L90.1471 59.1567L87.399 59.172L85.8718 69.1678Z" fill="white"/>
<path d="M37.1769 88.4229C24.9641 84.9591 14.8994 77.9918 8.2092 69.3273C9.04968 68.9248 9.97352 68.588 10.9996 68.3866C10.9996 68.3866 3.0534 60.8821 0.188099 52.7515C0.188099 52.7515 0.186731 52.7474 0.186731 52.7422V52.7474L0.185364 52.7373C0.185364 52.7373 0.81462 64.3026 3.49459 73.0794C3.49459 73.0794 4.2285 72.0953 5.56576 71.0104C11.5255 82.3762 21.9517 91.3713 35.2717 95.1471C55.1881 100.795 75.7182 93.14 87.3925 77.4705C75.9253 89.0827 56.5387 93.9123 37.1769 88.4229Z" fill="white"/>
<path d="M93.5035 23.9184C93.5035 23.9184 92.7726 24.9 91.4346 25.9874C85.4707 14.6227 75.0489 5.62733 61.7243 1.85101C41.8182 -3.79456 21.2821 3.86274 9.60754 19.5295C21.0793 7.91759 40.4635 3.08742 59.8221 8.57629C72.0327 12.0417 82.0974 19.0051 88.784 27.6689C87.9506 28.0714 87.0219 28.4098 85.9939 28.6077C85.9939 28.6077 93.9554 36.1219 96.8147 44.2597C96.8147 44.2597 96.1879 32.6917 93.5035 23.9184Z" fill="white"/>
</g>
<defs>
<clipPath id="clip0_88_15611">
<rect width="97" height="97" fill="white"/>
</clipPath>
</defs>
</svg>
